<svg width="20" height="20" viewBox="0 -960 960 960" xmlns="http://www.w3.org/2000/svg">
  <path d="m 212.03125,-883.98438 c -38.07992,0 -70.26923,13.15986 -96.5625,39.45313 -26.293281,26.28661 -39.453125,58.47591 -39.453125,96.5625 v 66.01563 H 256.64062 c 5.79568,-23.84004 17.7892,-45.72484 34.76563,-63.4375 54.3637,-54.36994 142.5113,-54.36994 196.875,0 54.36994,54.3637 54.36994,142.5113 0,196.875 -54.3637,54.36994 -142.5113,54.36994 -196.875,0 -16.16401,-16.99151 -27.77323,-37.79135 -33.75,-60.46876 H 76.015625 v 396.95313 c 0,38.07992 13.159844,70.26923 39.453125,96.5625 26.29327,26.293281 58.48258,39.453125 96.5625,39.453125 h 535.9375 c 38.08659,0 70.27589,-13.159844 96.5625,-39.453125 26.29327,-26.29327 39.45313,-58.48258 39.45313,-96.5625 v -351.5625 L 707.8125,-387.5 c 12.77498,20.95563 19.78259,44.91625 20.3125,69.45312 0.008,76.89185 -62.3269,139.2271 -139.21875,139.21876 -76.89185,0.008 -139.22709,-62.32691 -139.21875,-139.21876 -0.008,-76.89184 62.32691,-139.22708 139.21875,-139.21874 23.45175,0.58615 46.37502,7.08958 66.64063,18.90624 L 883.98438,-666.875 v -81.09375 c -10e-6,-38.08659 -13.15986,-70.27589 -39.45313,-96.5625 -26.28661,-26.29327 -58.47591,-39.45313 -96.5625,-39.45313 z" fill="#FF9900"/>
</svg>