<svg width="20" height="20" viewBox="0 -960 960 960" xmlns="http://www.w3.org/2000/svg">
  <path d="M 212.03125 -883.98438 C 173.95129 -883.98438 141.76205 -870.82455 115.46875 -844.53125 C 89.175443 -818.24461 76.015625 -786.05538 76.015625 -747.96875 L 76.015625 -212.03125 C 76.015625 -173.95129 89.175443 -141.76205 115.46875 -115.46875 C 141.76205 -89.175443 173.95129 -76.015625 212.03125 -76.015625 L 747.96875 -76.015625 C 786.05538 -76.015625 818.24461 -89.175443 844.53125 -115.46875 C 870.82455 -141.76205 883.98438 -173.95129 883.98438 -212.03125 L 883.98438 -747.96875 C 883.98437 -786.05538 870.82455 -818.24461 844.53125 -844.53125 C 818.24461 -870.82455 786.05538 -883.98438 747.96875 -883.98438 L 212.03125 -883.98438 z M 634.60938 -774.6875 L 703.98438 -774.6875 L 703.98438 -544.0625 L 828.67188 -544.0625 L 828.67188 -437.57812 L 703.98438 -437.57812 L 703.98438 -200.39062 L 634.60938 -200.39062 L 634.60938 -437.57812 L 626.40625 -437.57812 L 250.54688 -202.5 L 250.54688 -437.57812 L 129.375 -437.57812 L 129.375 -544.0625 L 250.54688 -544.0625 L 250.54688 -774.21875 L 618.51562 -544.0625 L 634.60938 -544.0625 L 634.60938 -774.6875 z " fill="#FF9900"/>
</svg>