<?xml version="1.0" encoding="UTF-8" standalone="no"?>
<!-- Created with Inkscape (http://www.inkscape.org/) -->

<svg
   width="440.6149mm"
   height="115.00242mm"
   viewBox="0 0 440.6149 115.00242"
   version="1.1"
   id="svg790"
   inkscape:export-filename="..\..\..\davinci-docs\logo\logo_small_dark.svg"
   inkscape:export-xdpi="96"
   inkscape:export-ydpi="96"
   inkscape:version="1.2.2 (732a01da63, 2022-12-09)"
   sodipodi:docname="Logo_v1B_dark.svg"
   xmlns:inkscape="http://www.inkscape.org/namespaces/inkscape"
   xmlns:sodipodi="http://sodipodi.sourceforge.net/DTD/sodipodi-0.dtd"
   xmlns="http://www.w3.org/2000/svg"
   xmlns:svg="http://www.w3.org/2000/svg">
  <sodipodi:namedview
     id="namedview792"
     pagecolor="#000000"
     bordercolor="#666666"
     borderopacity="1.0"
     inkscape:showpageshadow="2"
     inkscape:pageopacity="0"
     inkscape:pagecheckerboard="0"
     inkscape:deskcolor="#d1d1d1"
     inkscape:document-units="mm"
     showgrid="false"
     inkscape:zoom="0.26110522"
     inkscape:cx="402.13673"
     inkscape:cy="59.363041"
     inkscape:window-width="1920"
     inkscape:window-height="991"
     inkscape:window-x="-9"
     inkscape:window-y="-9"
     inkscape:window-maximized="1"
     inkscape:current-layer="layer1" />
  <defs
     id="defs787" />
  <g
     inkscape:label="Layer 1"
     inkscape:groupmode="layer"
     id="layer1"
     transform="translate(-36.802353,-41.434511)">
    <circle
       style="fill:#ffffff;fill-opacity:1;fill-rule:evenodd;stroke-width:0.228669;stroke-dasharray:none"
       id="path21087"
       cx="94.303558"
       cy="98.935715"
       r="57.501205"
       inkscape:export-filename="..\..\..\davinci-docs\logo\logo_small_dark.svg"
       inkscape:export-xdpi="96"
       inkscape:export-ydpi="96" />
    <path
       id="path5508"
       style="fill:#000000;fill-opacity:1;fill-rule:nonzero;stroke:#000000;stroke-width:1.307;stroke-linecap:round;stroke-linejoin:round;stroke-dasharray:none;stroke-opacity:1"
       d="m 93.787746,69.644044 c -12.698598,-7.1e-4 -33.350083,2.856602 -37.611338,9.283206 -1.995689,3.009795 8.205213,5.26611 11.510111,4.292706 1.924182,-0.566737 -3.483843,-2.764935 -0.749946,-4.94286 3.356808,-2.674165 18.981184,-3.548862 27.232443,-3.734989 8.251264,-0.18613 21.592474,-0.15915 21.705164,5.368607 0.13892,6.814544 -20.081856,9.055729 -18.044065,10.63155 2.546855,1.969481 37.109115,-8.299572 33.787445,-14.001869 -3.69623,-6.345304 -24.45497,-6.895601 -37.829814,-6.896351 z"
       sodipodi:nodetypes="sssszssss" />
    <path
       id="path5510"
       style="fill:#000000;fill-opacity:1;fill-rule:nonzero;stroke:#000000;stroke-width:1.702;stroke-linecap:round;stroke-linejoin:round;stroke-dasharray:none;stroke-opacity:1"
       d="m 91.891448,85.408444 c -0.3365,-2.064768 -49.336992,6.498914 -48.365637,14.035502 0.937786,7.276164 39.898346,6.431614 51.910866,6.210464 33.611143,-0.61875 47.898293,-6.832461 47.930153,-10.54074 0.0302,-3.520072 -17.0178,-7.035581 -17.54368,-6.076897 -0.59236,1.079864 6.93675,2.647005 3.53844,6.129837 -2.33055,2.388515 -23.8457,5.42738 -35.940981,5.09183 -8.846116,-0.24541 -27.841769,-1.044264 -26.039255,-5.17561 1.881615,-4.312646 24.824171,-7.747078 24.510094,-9.674386 z"
       sodipodi:nodetypes="ssssssass" />
    <path
       style="fill:#000000;fill-opacity:1;fill-rule:nonzero;stroke:none;stroke-width:1.55662;stroke-linecap:butt;stroke-linejoin:miter;stroke-dasharray:none;stroke-opacity:1"
       d="m 94.536193,62.285416 c 1.290371,-0.1322 6.886757,0.342267 7.742257,-0.793197 0.57735,-0.766284 -0.0569,-2.146568 -0.62518,-3.488979 -0.97845,-2.311258 -4.975209,-7.734759 -6.135893,-8.529369 -0.315117,-0.215736 -0.624797,-0.161838 -0.749757,-0.194206 -0.126027,0.0279 -0.433587,-0.03698 -0.756184,0.167409 -1.188224,0.752812 -5.3754,6.030691 -6.435454,8.305666 -0.615697,1.321344 -1.298634,2.678195 -0.748917,3.464532 0.814567,1.165174 6.424274,0.890114 7.709128,1.068144 z"
       id="path5528"
       sodipodi:nodetypes="cc" />
    <g
       id="g1074"
       transform="matrix(0.71612308,0,0,0.88419065,15.64179,-62.900978)"
       style="fill:#000000;fill-opacity:1;stroke:#010101;stroke-width:1.47286;stroke-dasharray:none;stroke-opacity:1">
      <path
         id="path5524"
         d="m 101.6681,198.57356 c -6.040707,2.4016 -20.333854,17.3056 -22.944651,21.06803 -3.402733,4.90369 8.123946,10.68236 28.150451,10.70028 26.61987,0.0238 30.86228,-4.33261 31.29335,-8.00607 0.21261,-1.81184 -2.03842,-4.42708 -2.98588,-5.50107 -5.26112,-5.96371 -12.00035,-10.35487 -17.47178,-14.4906 -1.30122,-0.98356 -3.551,0.28221 -4.59763,0.93932 -1.51771,0.95288 9.35701,10.52879 8.08871,13.31385 -1.24355,2.7307 -6.67863,3.6045 -11.96495,3.86077 -5.28632,0.25627 -17.074295,-0.4279 -17.893184,-3.79744 -1.352026,-5.56328 9.161144,-14.61706 11.476934,-15.91191 1.15793,-0.64744 7.0053,-1.00037 7.05877,-1.73972 0.0377,-0.52111 -6.10536,-1.27224 -8.21014,-0.43544 z"
         sodipodi:nodetypes="sssssssszssss"
         style="fill:#000000;fill-opacity:1;stroke:#010101;stroke-width:1.47286;stroke-linecap:round;stroke-linejoin:round;stroke-dasharray:none;stroke-opacity:1" />
    </g>
    <text
       xml:space="preserve"
       style="font-size:93.8772px;line-height:1.25;font-family:'Montserrat Thin';-inkscape-font-specification:'Montserrat Thin, ';fill:#ffffff;fill-opacity:1;stroke-width:0.469384"
       x="170.15718"
       y="127.63177"
       id="text5071"><tspan
         sodipodi:role="line"
         id="tspan5069"
         style="font-style:normal;font-variant:normal;font-weight:normal;font-stretch:normal;font-family:'DM Serif Display';-inkscape-font-specification:'DM Serif Display';fill:#ffffff;fill-opacity:1;stroke-width:0.469384"
         x="170.15718"
         y="127.63177">Davinci</tspan></text>
  </g>
</svg>
