<?xml version="1.0" encoding="UTF-8" standalone="no"?>
<!-- Created with Inkscape (http://www.inkscape.org/) -->

<svg
   width="210mm"
   height="297mm"
   viewBox="0 0 210 297"
   version="1.1"
   id="svg790"
   xmlns="http://www.w3.org/2000/svg"
   xmlns:svg="http://www.w3.org/2000/svg">
  <defs
     id="defs787" />
  <g
     id="layer1">
    <g
       id="layer2"
       style="display:none">
      <rect
         style="display:none;fill:#1a0030;stroke:#ffffff;stroke-width:1.93128;stroke-linecap:round;stroke-linejoin:bevel;stroke-opacity:1;paint-order:stroke fill markers"
         id="rect1625"
         width="210.94125"
         height="294.87299"
         x="-0.50501364"
         y="0.80510181" />
    </g>
    <circle
       style="fill:#000000;fill-opacity:1;fill-rule:evenodd;stroke-width:0.228669;stroke-dasharray:none"
       id="path21087"
       cx="108.0619"
       cy="140.7397"
       r="57.501205" />
    <path
       id="path5508"
       style="fill:#ffffff;fill-opacity:1;fill-rule:nonzero;stroke:#ffffff;stroke-width:1.307;stroke-linecap:round;stroke-linejoin:round;stroke-dasharray:none;stroke-opacity:1"
       d="m 107.54613,111.4483 c -12.69864,-7.1e-4 -33.350125,2.85662 -37.61138,9.28326 -1.995689,3.00981 8.205213,5.26614 11.510111,4.29273 1.924182,-0.56674 -3.483843,-2.76495 -0.749946,-4.94289 3.356808,-2.67418 18.981184,-3.54888 27.232485,-3.73501 8.2513,-0.18613 21.59251,-0.15915 21.7052,5.36864 0.13892,6.81458 -20.08188,9.05578 -18.04408,10.63161 2.54687,1.96949 37.10913,-8.29962 33.78746,-14.00195 -3.69623,-6.34534 -24.45497,-6.89564 -37.82985,-6.89639 z" />
    <path
       id="path5510"
       style="fill:#ffffff;fill-opacity:1;fill-rule:nonzero;stroke:#ffffff;stroke-width:1.702;stroke-linecap:round;stroke-linejoin:round;stroke-dasharray:none;stroke-opacity:1"
       d="m 105.64982,127.21279 c -0.3365,-2.06478 -49.337022,6.49895 -48.365667,14.03558 0.937786,7.27617 39.898346,6.43162 51.910917,6.21047 33.61117,-0.61875 47.89832,-6.83247 47.93018,-10.54077 0.0302,-3.52009 -17.0178,-7.03562 -17.54368,-6.07693 -0.59236,1.07987 6.93675,2.64702 3.53844,6.12987 -2.33055,2.38853 -23.8457,5.42741 -35.94102,5.09186 -8.846155,-0.24541 -27.841808,-1.04427 -26.039294,-5.17564 1.881615,-4.31267 24.824204,-7.74712 24.510124,-9.67444 z" />
    <path
       style="fill:#ffffff;fill-opacity:1;fill-rule:nonzero;stroke:none;stroke-width:1.55662;stroke-linecap:butt;stroke-linejoin:miter;stroke-dasharray:none;stroke-opacity:1"
       d="m 108.29458,104.08963 c 1.29038,-0.1322 6.88679,0.34227 7.74229,-0.7932 0.57735,-0.76629 -0.0569,-2.14658 -0.62518,-3.488997 -0.97845,-2.311258 -4.97523,-7.734759 -6.13592,-8.529369 -0.31512,-0.215736 -0.6248,-0.161838 -0.74976,-0.194206 -0.12603,0.0279 -0.43359,-0.03698 -0.75619,0.167409 -1.18823,0.752812 -5.37543,6.030691 -6.43549,8.305666 -0.6157,1.321347 -1.29864,2.678207 -0.74892,3.464547 0.81457,1.16518 6.42431,0.89012 7.70917,1.06815 z"
       id="path5528" />
    <g
       id="g1074"
       transform="matrix(0.71612308,0,0,0.88419065,29.400132,-21.096785)"
       style="fill:#ffffff;fill-opacity:1;stroke:#ffffff;stroke-width:1.47286;stroke-dasharray:none;stroke-opacity:1">
      <path
         id="path5524"
         d="m 101.6681,198.57356 c -6.040707,2.4016 -20.333854,17.3056 -22.944651,21.06803 -3.402733,4.90369 8.123946,10.68236 28.150451,10.70028 26.61987,0.0238 30.86228,-4.33261 31.29335,-8.00607 0.21261,-1.81184 -2.03842,-4.42708 -2.98588,-5.50107 -5.26112,-5.96371 -12.00035,-10.35487 -17.47178,-14.4906 -1.30122,-0.98356 -3.551,0.28221 -4.59763,0.93932 -1.51771,0.95288 9.35701,10.52879 8.08871,13.31385 -1.24355,2.7307 -6.67863,3.6045 -11.96495,3.86077 -5.28632,0.25627 -17.074295,-0.4279 -17.893184,-3.79744 -1.352026,-5.56328 9.161144,-14.61706 11.476934,-15.91191 1.15793,-0.64744 7.0053,-1.00037 7.05877,-1.73972 0.0377,-0.52111 -6.10536,-1.27224 -8.21014,-0.43544 z"
         style="fill:#ffffff;fill-opacity:1;stroke:#ffffff;stroke-width:1.47286;stroke-linecap:round;stroke-linejoin:round;stroke-dasharray:none;stroke-opacity:1" />
    </g>
    <text
       xml:space="preserve"
       style="font-size:48.5258px;line-height:1.25;font-family:'Montserrat Thin';-inkscape-font-specification:'Montserrat Thin, ';stroke-width:0.242628"
       x="28.152506"
       y="247.20869"
       id="text5071"><tspan
         id="tspan5069"
         style="font-style:normal;font-variant:normal;font-weight:normal;font-stretch:normal;font-family:'DM Serif Display';-inkscape-font-specification:'DM Serif Display';stroke-width:0.242628"
         x="28.152506"
         y="247.20869">Davinci</tspan></text>
  </g>
</svg>
