<svg width="16" height="16" viewBox="0 0 18 18" xmlns="http://www.w3.org/2000/svg">
  <path d="M2.92273 18C2.11424 18 1.425 17.7142 0.855 17.1427C0.285 16.5712 0 15.8812 0 15.0727C0 14.2642 0.285532 13.575 0.856597 13.005C1.42768 12.435 2.11714 12.15 2.925 12.15C3.21 12.15 3.48 12.1877 3.735 12.2632C3.99 12.3386 3.7125 12.2409 3.9375 12.375L7.875 8.73V5.7825C7.23 5.6175 7.14375 5.27256 6.71625 4.74768C6.28875 4.22282 6.075 3.61525 6.075 2.925C6.075 2.11714 6.36076 1.42768 6.93227 0.856597C7.50379 0.285532 8.19379 0 9.00227 0C9.81076 0 10.5 0.285532 11.07 0.856597C11.64 1.42768 11.925 2.11714 11.925 2.925C11.925 3.61525 11.7113 4.22282 11.2838 4.74768C10.8563 5.27256 10.77 5.6175 10.125 5.7825V8.73L14.0625 12.375C14.2943 12.2409 14.0202 12.3386 14.2752 12.2632C14.5302 12.1877 14.7968 12.15 15.075 12.15C15.8829 12.15 16.5723 12.4358 17.1434 13.0073C17.7145 13.5788 18 14.2688 18 15.0773C18 15.8858 17.7142 16.575 17.1427 17.145C16.5712 17.715 15.8812 18 15.0727 18C14.2642 18 13.575 17.7145 13.005 17.1434C12.435 16.5723 12.15 15.8829 12.15 15.075C12.15 14.79 12.1877 14.52 12.2632 14.265C12.3386 14.01 12.4434 13.77 12.5775 13.545L9 9.945L5.4225 13.545C5.55662 13.77 5.6614 14.01 5.73685 14.265C5.81228 14.52 5.85 14.79 5.85 15.075C5.85 15.8829 5.56424 16.5723 4.99273 17.1434C4.42121 17.7145 3.73121 18 2.92273 18Z" fill="#00D1FF"/>
</svg>