<svg width="20" height="20" viewBox="0 -960 960 960" xmlns="http://www.w3.org/2000/svg">
  <path d="m 220,-80 c -38.66667,0 -71.66667,-13.666667 -99,-41 -27.333333,-27.33333 -41,-60.33333 -41,-99 0,-38.66667 13.666667,-71.66667 41,-99 27.33333,-27.33333 60.33333,-41 99,-41 12,0 23.66667,1.5 35,4.5 11.33333,3 22,7.16667 32,12.5 l 153,-153 v -110 c -29.33333,-8.66667 -53.33333,-25.16667 -72,-49.5 -18.66667,-24.33333 -28,-52.5 -28,-84.5 0,-38.66667 13.66667,-71.66667 41,-99 27.33333,-27.33333 60.33333,-41 99,-41 38.66667,0 71.66667,13.66667 99,41 27.33333,27.33333 41,60.33333 41,99 0,32 -9.33333,60.16667 -28,84.5 -18.66667,24.33333 -42.66667,40.83333 -72,49.5 v 110 l 154,153 c 10,-5.33333 20.5,-9.5 31.5,-12.5 11,-3 22.5,-4.5 34.5,-4.5 38.66667,0 71.66667,13.66667 99,41 27.33333,27.33333 41,60.33333 41,99 0,38.66667 -13.66667,71.66667 -41,99 -27.33333,27.333333 -60.33333,41 -99,41 -38.66667,0 -71.66667,-13.666667 -99,-41 -27.33333,-27.33333 -41,-60.33333 -41,-99 0,-12 1.5,-23.66667 4.5,-35 3,-11.33333 7.16667,-22 12.5,-32 L 480,-424 343,-287 c 5.33333,10 9.5,20.66667 12.5,32 3,11.33333 4.5,23 4.5,35 0,38.66667 -13.66667,71.66667 -41,99 -27.33333,27.333333 -60.33333,41 -99,41 z" fill="#00D1FF"/>
</svg>