<svg width="16" height="16" viewBox="0 0 18 18" xmlns="http://www.w3.org/2000/svg">
  <path d="M10 16V14H11.75C11.9625 14 12.1406 13.9042 12.2844 13.7125C12.4281 13.5208 12.5 13.2833 12.5 13V11C12.5 10.2407 12.691 9.58796 13.0729 9.04167C13.4549 8.49537 13.9306 8.17593 14.5 8.08333V7.97222C13.9306 7.82407 13.4549 7.48148 13.0729 6.94444C12.691 6.40741 12.5 5.75926 12.5 5V3C12.5 2.71667 12.4281 2.47917 12.2844 2.2875C12.1406 2.09583 11.9625 2 11.75 2H10V0H11.75C12.375 0 12.9063 0.291667 13.3438 0.875C13.7813 1.45833 14 2.16667 14 3V5C14 5.28333 14.0719 5.52083 14.2156 5.7125C14.3594 5.90417 14.5375 6 14.75 6H16V10H14.75C14.5375 10 14.3594 10.0958 14.2156 10.2875C14.0719 10.4792 14 10.7167 14 11V13C14 13.8333 13.7813 14.5417 13.3438 15.125C12.9063 15.7083 12.375 16 11.75 16H10ZM4.25 16C3.625 16 3.09375 15.7083 2.65625 15.125C2.21875 14.5417 2 13.8333 2 13V11C2 10.7167 1.92812 10.4792 1.78437 10.2875C1.64062 10.0958 1.4625 10 1.25 10H0V6H1.25C1.4625 6 1.64062 5.90417 1.78437 5.7125C1.92812 5.52083 2 5.28333 2 5V3C2 2.16667 2.21875 1.45833 2.65625 0.875C3.09375 0.291667 3.625 0 4.25 0H6V2H4.25C4.0375 2 3.85938 2.09583 3.71563 2.2875C3.57188 2.47917 3.5 2.71667 3.5 3V5C3.5 5.77778 3.30903 6.43981 2.92708 6.98611C2.54514 7.53241 2.06944 7.85185 1.5 7.94444V8.05967C2.06944 8.131 2.54514 8.44444 2.92708 9C3.30903 9.55556 3.5 10.2222 3.5 11V13C3.5 13.2833 3.57188 13.5208 3.71563 13.7125C3.85938 13.9042 4.0375 14 4.25 14H6V16H4.25Z" fill="#FF3737"/>
</svg>