<svg width="20" height="20" viewBox="0 -960 960 960" fill="none" xmlns="http://www.w3.org/2000/svg">
  <path d="M19.6028 6.22361L19.741 6.5H20.05H37C37.6155 6.5 38.1845 6.74163 38.7214 7.27855C39.2584 7.81548 39.5 8.38455 39.5 9V29C39.5 29.6155 39.2584 30.1845 38.7214 30.7214C38.1845 31.2584 37.6155 31.5 37 31.5H3C2.34589 31.5 1.77212 31.2544 1.25836 30.7263C0.737107 30.1906 0.5 29.6201 0.5 29V3C0.5 2.37992 0.737107 1.80941 1.25836 1.27368C1.77212 0.745647 2.34589 0.5 3 0.5H16.741L19.6028 6.22361Z" fill="gray"/>
  <path d="M19.6028 6.22361L19.741 6.5H20.05H37C37.6155 6.5 38.1845 6.74163 38.7214 7.27855C39.2584 7.81548 39.5 8.38455 39.5 9V29C39.5 29.6155 39.2584 30.1845 38.7214 30.7214C38.1845 31.2584 37.6155 31.5 37 31.5H3C2.34589 31.5 1.77212 31.2544 1.25836 30.7263C0.737107 30.1906 0.5 29.6201 0.5 29V3C0.5 2.37992 0.737107 1.80941 1.25836 1.27368C1.77212 0.745647 2.34589 0.5 3 0.5H16.741L19.6028 6.22361Z" stroke="gray"/>
  <path d="M19.6028 6.22361L19.741 6.5H20.05H37C37.6155 6.5 38.1845 6.74163 38.7214 7.27855C39.2584 7.81548 39.5 8.38455 39.5 9V29C39.5 29.6155 39.2584 30.1845 38.7214 30.7214C38.1845 31.2584 37.6155 31.5 37 31.5H3C2.34589 31.5 1.77212 31.2544 1.25836 30.7263C0.737107 30.1906 0.5 29.6201 0.5 29V3C0.5 2.37992 0.737107 1.80941 1.25836 1.27368C1.77212 0.745647 2.34589 0.5 3 0.5H16.741L19.6028 6.22361Z" stroke="gray" stroke-opacity="0"/>
</svg>