<svg width="16" height="16" viewBox="0 0 18 18" xmlns="http://www.w3.org/2000/svg">
  <path d="M7.33333 15.8412L0.666667 12.4069C0.455556 12.2954 0.291667 12.1485 0.175 11.966C0.0583333 11.7835 0 11.5864 0 11.3747V4.62531C0 4.41356 0.0583333 4.21646 0.175 4.03401C0.291667 3.85155 0.455556 3.70456 0.666667 3.59305L7.33333 0.158809C7.5456 0.0529363 7.76904 0 8.00364 0C8.23825 0 8.45926 0.0529363 8.66667 0.158809L15.3333 3.59305C15.5444 3.70456 15.7083 3.85155 15.825 4.03401C15.9417 4.21646 16 4.41356 16 4.62531V11.3747C16 11.5864 15.9417 11.7835 15.825 11.966C15.7083 12.1485 15.5444 12.2954 15.3333 12.4069L8.66667 15.8412C8.4544 15.9471 8.23096 16 7.99636 16C7.76175 16 7.54074 15.9471 7.33333 15.8412ZM7.33333 8.33747V14.4715L8 14.8089L8.66667 14.4715V8.33425L14.6667 5.22084V4.62531L13.9111 4.24814L8 7.32506L2.06667 4.24814L1.33333 4.6185V5.24069L7.33333 8.33747Z" fill="#FF9900"/>
</svg>