<svg width="20" height="20" viewBox="0 -960 960 960" xmlns="http://www.w3.org/2000/svg">
  <path id="path140" style="stroke-width:0.766716" d="M 318.98438 -826.875 C 302.11663 -826.875 287.63687 -820.84001 275.625 -808.82812 C 263.61312 -796.81625 257.57812 -782.41462 257.57812 -765.54688 L 257.57812 -717.10938 L 363.90625 -717.10938 L 425.3125 -655.78125 L 646.64062 -655.78125 C 677.26567 -655.78125 709.33425 -642.38449 730.9375 -620.78125 C 752.54074 -599.178 765.9375 -567.10942 765.9375 -536.48438 L 765.9375 -336.17188 L 809.60938 -336.17188 C 826.47712 -336.17188 840.95687 -342.20688 852.96875 -354.21875 C 864.98062 -366.23062 871.01562 -380.63225 871.01562 -397.5 L 871.01562 -704.21875 C 871.01562 -721.08649 864.98062 -735.48812 852.96875 -747.5 C 840.95687 -759.51187 826.47712 -765.54688 809.60938 -765.54688 L 564.29688 -765.54688 L 502.96875 -826.875 L 318.98438 -826.875 z M 257.57812 -601.17188 L 257.57812 -397.5 C 257.57812 -380.63225 263.61312 -366.23062 275.625 -354.21875 C 287.63687 -342.20688 302.11663 -336.17188 318.98438 -336.17188 L 650 -336.17188 L 650 -536.48438 C 650 -539.59478 651.40486 -536.40763 648.98438 -538.82812 C 646.56389 -541.24861 649.75103 -539.84375 646.64062 -539.84375 L 377.26562 -539.84375 L 315.9375 -601.17188 L 257.57812 -601.17188 z " fill="#FFFFFF"/>
  <path d="m 156.83358,-166.75499 q -25.30164,0 -43.31948,-18.01783 -18.01783,-18.01783 -18.01783,-43.31948 v -368.02388 q 0,-25.30164 18.01783,-43.31948 18.01784,-18.01783 43.31948,-18.01783 h 184.01194 l 61.33732,61.33731 h 245.34925 q 25.30164,0 43.31948,18.01783 18.01783,18.01784 18.01783,43.31948 v 306.68657 q 0,25.30165 -18.01783,43.31948 -18.01784,18.01783 -43.31948,18.01783 z" id="path306" style="stroke-width:0.766716" fill="#FFFFFF"/>
</svg>
