<?xml version="1.0" encoding="UTF-8" standalone="no"?>
<svg
   width="20"
   height="20"
   viewBox="0 -960 960 960"
   version="1.1"
   id="svg286"
   sodipodi:docname="req_new.svg"
   inkscape:version="1.2.2 (732a01da63, 2022-12-09)"
   xmlns:inkscape="http://www.inkscape.org/namespaces/inkscape"
   xmlns:sodipodi="http://sodipodi.sourceforge.net/DTD/sodipodi-0.dtd"
   xmlns="http://www.w3.org/2000/svg"
   xmlns:svg="http://www.w3.org/2000/svg">
  <defs
     id="defs290" />
  <sodipodi:namedview
     id="namedview288"
     pagecolor="#ffffff"
     bordercolor="#666666"
     borderopacity="1.0"
     inkscape:showpageshadow="2"
     inkscape:pageopacity="0.0"
     inkscape:pagecheckerboard="0"
     inkscape:deskcolor="#d1d1d1"
     showgrid="false"
     inkscape:zoom="14.654788"
     inkscape:cx="8.0178573"
     inkscape:cy="13.510943"
     inkscape:window-width="1920"
     inkscape:window-height="1009"
     inkscape:window-x="3592"
     inkscape:window-y="-8"
     inkscape:window-maximized="1"
     inkscape:current-layer="svg286" />
  <path
     d="M 395.64391,-202.23401 H 757.82099 V -356.22267 H 395.64391 Z M 204.37925,-422.53896 H 340.99687 V -565.28757 H 204.37925 Z m 0,220.30495 H 340.99687 V -356.22267 H 204.37925 Z M 395.64391,-422.53896 H 757.82099 V -565.28757 H 395.64391 Z m -230.5216,302.79952 c -14.57254,0 -27.32352,-6.74403 -38.25293,-20.23209 -10.92941,-13.48806 -16.39411,-29.22412 -16.39411,-47.2082 v -584.48251 c 0,-17.98408 5.4647,-33.72015 16.39411,-47.2082 10.92941,-13.48806 23.68039,-20.23209 38.25293,-20.23209 h 619.33318 c 14.57254,0 27.32352,6.74403 38.25293,20.23209 10.92941,13.48805 16.39411,29.22412 16.39411,47.2082 v 584.48251 c 0,17.98408 -5.4647,33.72014 -16.39411,47.2082 -10.92941,13.48806 -23.68039,20.23209 -38.25293,20.23209 z"
     fill="#40aa58"
     id="path164"
     style="display:inline;stroke-width:45.2488"
     sodipodi:nodetypes="ccccccccccccccccccccsssssssssssss" />
</svg>
