<svg width="20" height="20" viewBox="0 0 20 20" xmlns="http://www.w3.org/2000/svg">
  <path d="M5.54183 14.3335H7.62516L12.6252 9.3335L10.5418 7.25016L5.54183 12.2502V14.3335ZM13.4168 8.54183L14.3127 7.62516C14.4238 7.51405 14.4793 7.396 14.4793 7.271C14.4793 7.146 14.4238 7.02794 14.3127 6.91683L12.9585 5.56266C12.8474 5.45155 12.7293 5.396 12.6043 5.396C12.4793 5.396 12.3613 5.45155 12.2502 5.56266L11.3335 6.4585L13.4168 8.54183ZM4.37516 17.5418C3.796 17.5418 3.31093 17.3463 2.91995 16.9554C2.52898 16.5644 2.3335 16.0793 2.3335 15.5002V4.29183C2.3335 3.71266 2.52898 3.22759 2.91995 2.83662C3.31093 2.44565 3.796 2.25016 4.37516 2.25016H7.43766C7.68766 1.80572 8.03836 1.43766 8.48975 1.146C8.94113 0.854329 9.44461 0.708496 10.0002 0.708496C10.5557 0.708496 11.0592 0.854329 11.5106 1.146C11.962 1.43766 12.3127 1.80572 12.5627 2.25016H15.6252C16.2043 2.25016 16.6894 2.44565 17.0804 2.83662C17.4713 3.22759 17.6668 3.71266 17.6668 4.29183V15.5002C17.6668 16.0793 17.4713 16.5644 17.0804 16.9554C16.6894 17.3463 16.2043 17.5418 15.6252 17.5418H4.37516Z" fill="#FF3737"/>
</svg>
