<svg width="24" height="24" viewBox="0 -960 960 960" xmlns="http://www.w3.org/2000/svg">
  <path d="m 384,-696 h 192 v 168 H 384 Z m 432,372 v -132 c 0,-19.79998 -7.08751,-36.71251 -21.1875,-50.8125 C 780.71251,-520.91249 763.79998,-528 744,-528 h -96 v -168 c 0,-19.79998 -7.08751,-36.71251 -21.1875,-50.8125 C 612.71251,-760.91249 595.79998,-768 576,-768 H 384 c -19.79998,0 -36.71251,7.00001 -50.8125,21 C 319.08751,-733.00001 312,-716.04748 312,-696.1875 V -528 h -96 c -19.79998,0 -36.71251,7.08751 -50.8125,21.1875 C 151.08751,-492.71251 144,-475.79998 144,-456 v 132 48 180 h 672 v -180 z" fill="#FF3737"/>
</svg>